<svg viewBox="0 0 256 256" xmlns="http://www.w3.org/2000/svg">
  <!-- Markdown Midget mascot: the canonical Markdown M▼ badge, anthropomorphized.
       Nord palette to match the editor theme. Designed to stay legible at 32px:
       bright backplate + dark badge + white mark + two big googly eyes. The
       character is sized to dominate the tile (small backplate margin). -->

  <!-- Rounded-square app backplate so the icon pops on any background. -->
  <rect x="8" y="8" width="240" height="240" rx="46" fill="#88C0D0"/>
  <rect x="8" y="8" width="240" height="240" rx="46" fill="none" stroke="#5E81AC" stroke-width="5"/>

  <!-- Stubby feet peeking out below the body. -->
  <ellipse cx="94" cy="224" rx="25" ry="15" fill="#D08770"/>
  <ellipse cx="162" cy="224" rx="25" ry="15" fill="#D08770"/>

  <!-- Little arms. -->
  <rect x="16" y="144" width="26" height="17" rx="8" fill="#434C5E"/>
  <rect x="214" y="144" width="26" height="17" rx="8" fill="#434C5E"/>

  <!-- Body = the Markdown badge. -->
  <rect x="32" y="64" width="192" height="154" rx="30" fill="#3B4252" stroke="#2E3440" stroke-width="6"/>

  <!-- The canonical Markdown mark (M + down arrow), white, centered in the body. -->
  <g transform="translate(42,92) scale(0.82)" fill="#ECEFF4">
    <path d="M30 98V30h20l20 25 20-25h20v68H90V59L70 84 50 59v39zm125 0l-30-33h20V30h20v35h20z"/>
  </g>

  <!-- Googly eyes perched on top of the head, looking down at the mark. -->
  <g>
    <circle cx="95" cy="60" r="31" fill="#ECEFF4" stroke="#2E3440" stroke-width="5"/>
    <circle cx="161" cy="60" r="31" fill="#ECEFF4" stroke="#2E3440" stroke-width="5"/>
    <circle cx="98" cy="72" r="13" fill="#2E3440"/>
    <circle cx="158" cy="72" r="13" fill="#2E3440"/>
    <circle cx="103" cy="67" r="4" fill="#ECEFF4"/>
    <circle cx="163" cy="67" r="4" fill="#ECEFF4"/>
  </g>
</svg>
