<svg viewBox="0 0 256 256" xmlns="http://www.w3.org/2000/svg">
  <!-- Markdown Midget mascot: the canonical Markdown M▼ badge, anthropomorphized.
       Nord palette to match the editor theme. Designed to stay legible at 32px:
       bright backplate + dark badge + white mark + two big googly eyes. -->

  <!-- Rounded-square app backplate so the icon pops on any background. -->
  <rect x="10" y="10" width="236" height="236" rx="48" fill="#88C0D0"/>
  <rect x="10" y="10" width="236" height="236" rx="48" fill="none" stroke="#5E81AC" stroke-width="5"/>

  <!-- Stubby feet peeking out below the body. -->
  <ellipse cx="98" cy="214" rx="21" ry="13" fill="#D08770"/>
  <ellipse cx="158" cy="214" rx="21" ry="13" fill="#D08770"/>

  <!-- Little arms. -->
  <rect x="28" y="132" width="24" height="15" rx="7" fill="#434C5E"/>
  <rect x="204" y="132" width="24" height="15" rx="7" fill="#434C5E"/>

  <!-- Body = the Markdown badge. -->
  <rect x="44" y="76" width="168" height="132" rx="26" fill="#3B4252" stroke="#2E3440" stroke-width="5"/>

  <!-- The canonical Markdown mark (M + down arrow), white, centered in the body. -->
  <g transform="translate(53,104) scale(0.72)" fill="#ECEFF4">
    <path d="M30 98V30h20l20 25 20-25h20v68H90V59L70 84 50 59v39zm125 0l-30-33h20V30h20v35h20z"/>
  </g>

  <!-- Googly eyes perched on top of the head, looking down at the mark. -->
  <g>
    <circle cx="98" cy="70" r="26" fill="#ECEFF4" stroke="#2E3440" stroke-width="4"/>
    <circle cx="158" cy="70" r="26" fill="#ECEFF4" stroke="#2E3440" stroke-width="4"/>
    <circle cx="100" cy="80" r="11" fill="#2E3440"/>
    <circle cx="156" cy="80" r="11" fill="#2E3440"/>
    <circle cx="104" cy="76" r="3.5" fill="#ECEFF4"/>
    <circle cx="160" cy="76" r="3.5" fill="#ECEFF4"/>
  </g>
</svg>
